<svg xmlns="http://www.w3.org/2000/svg" xmlns:xlink="http://www.w3.org/1999/xlink" width="500" zoomAndPan="magnify" viewBox="0 0 375 374.999991" height="500" preserveAspectRatio="xMidYMid meet" version="1.0"><defs><g/><clipPath id="69a0796419"><path d="M 93.542969 77 L 281.792969 77 L 281.792969 236 L 93.542969 236 Z M 93.542969 77 " clip-rule="nonzero"/></clipPath></defs><g clip-path="url(#69a0796419)"><path fill="#0cb454" d="M 279.835938 165.261719 L 193.542969 80.121094 C 193.15625 79.742188 192.734375 79.402344 192.28125 79.101562 C 191.828125 78.800781 191.351562 78.546875 190.847656 78.34375 C 190.347656 78.136719 189.828125 77.980469 189.292969 77.875 C 188.761719 77.769531 188.222656 77.71875 187.679688 77.71875 C 187.136719 77.71875 186.597656 77.769531 186.0625 77.875 C 185.53125 77.980469 185.011719 78.136719 184.511719 78.34375 C 184.007812 78.546875 183.527344 78.800781 183.074219 79.101562 C 182.621094 79.402344 182.203125 79.742188 181.816406 80.121094 L 148.8125 112.621094 L 148.8125 106.183594 C 148.8125 105.910156 148.785156 105.640625 148.730469 105.371094 C 148.675781 105.105469 148.597656 104.84375 148.492188 104.59375 C 148.390625 104.339844 148.261719 104.101562 148.109375 103.875 C 147.957031 103.648438 147.785156 103.4375 147.589844 103.246094 C 147.398438 103.054688 147.1875 102.882812 146.960938 102.730469 C 146.734375 102.578125 146.492188 102.449219 146.238281 102.347656 C 145.988281 102.242188 145.726562 102.164062 145.457031 102.109375 C 145.191406 102.054688 144.917969 102.03125 144.644531 102.03125 L 128.320312 102.03125 C 128.046875 102.03125 127.777344 102.054688 127.507812 102.109375 C 127.238281 102.164062 126.980469 102.242188 126.726562 102.347656 C 126.472656 102.449219 126.234375 102.578125 126.007812 102.730469 C 125.777344 102.882812 125.570312 103.054688 125.375 103.246094 C 125.183594 103.4375 125.007812 103.648438 124.855469 103.875 C 124.707031 104.101562 124.578125 104.34375 124.472656 104.59375 C 124.367188 104.84375 124.289062 105.105469 124.234375 105.371094 C 124.183594 105.640625 124.15625 105.910156 124.15625 106.183594 L 124.15625 137.019531 L 95.5 165.261719 C 95.136719 165.621094 94.835938 166.023438 94.59375 166.472656 C 94.351562 166.917969 94.179688 167.394531 94.078125 167.894531 C 93.976562 168.390625 93.949219 168.894531 94 169.402344 C 94.046875 169.910156 94.167969 170.398438 94.363281 170.871094 C 94.554688 171.339844 94.8125 171.773438 95.136719 172.167969 C 95.460938 172.5625 95.832031 172.902344 96.257812 173.1875 C 96.679688 173.472656 97.136719 173.6875 97.625 173.839844 C 98.113281 173.988281 98.613281 174.0625 99.125 174.066406 L 123.945312 174.066406 L 123.945312 224.398438 C 123.945312 225.152344 124.019531 225.894531 124.167969 226.632812 C 124.3125 227.367188 124.53125 228.085938 124.820312 228.777344 C 125.109375 229.472656 125.460938 230.132812 125.878906 230.757812 C 126.300781 231.382812 126.773438 231.960938 127.308594 232.492188 C 127.839844 233.023438 128.421875 233.496094 129.046875 233.914062 C 129.671875 234.332031 130.335938 234.683594 131.03125 234.96875 C 131.726562 235.257812 132.445312 235.476562 133.183594 235.621094 C 133.921875 235.769531 134.667969 235.839844 135.421875 235.839844 L 239.917969 235.839844 C 240.667969 235.839844 241.414062 235.769531 242.15625 235.621094 C 242.894531 235.476562 243.609375 235.257812 244.308594 234.96875 C 245.003906 234.683594 245.664062 234.332031 246.292969 233.914062 C 246.917969 233.496094 247.496094 233.023438 248.03125 232.492188 C 248.5625 231.960938 249.039062 231.382812 249.457031 230.757812 C 249.875 230.132812 250.230469 229.472656 250.515625 228.777344 C 250.804688 228.085938 251.023438 227.367188 251.171875 226.632812 C 251.316406 225.894531 251.390625 225.152344 251.390625 224.398438 L 251.390625 174.066406 L 276.210938 174.066406 C 276.722656 174.0625 277.222656 173.988281 277.710938 173.839844 C 278.199219 173.6875 278.65625 173.472656 279.082031 173.1875 C 279.503906 172.902344 279.878906 172.5625 280.199219 172.167969 C 280.523438 171.773438 280.78125 171.339844 280.976562 170.871094 C 281.167969 170.398438 281.289062 169.910156 281.339844 169.402344 C 281.386719 168.894531 281.359375 168.390625 281.257812 167.894531 C 281.15625 167.394531 280.984375 166.917969 280.742188 166.472656 C 280.5 166.023438 280.199219 165.621094 279.835938 165.261719 Z M 205.867188 215.492188 C 205.742188 209.59375 205.679688 205.855469 205.679688 205.691406 C 205.9375 203.839844 206.726562 202.253906 208.054688 200.933594 C 209.304688 199.378906 210.574219 197.839844 211.929688 196.386719 C 212.984375 195.308594 213.925781 194.140625 214.761719 192.882812 C 215.59375 191.625 216.304688 190.304688 216.886719 188.914062 C 217.472656 187.523438 217.921875 186.09375 218.238281 184.621094 C 218.550781 183.144531 218.726562 181.65625 218.757812 180.148438 C 218.976562 172.242188 217.589844 164.628906 214.59375 157.308594 C 214.027344 155.644531 213.207031 154.113281 212.140625 152.71875 C 211.070312 151.320312 209.804688 150.128906 208.347656 149.144531 C 207.535156 148.757812 206.6875 148.464844 205.8125 148.265625 C 204.933594 148.066406 204.042969 147.964844 203.140625 147.964844 C 202.238281 147.964844 201.351562 148.066406 200.472656 148.265625 C 199.59375 148.464844 198.746094 148.757812 197.933594 149.144531 C 196.476562 150.128906 195.210938 151.320312 194.140625 152.71875 C 193.074219 154.113281 192.253906 155.644531 191.6875 157.308594 C 188.695312 164.628906 187.304688 172.242188 187.523438 180.148438 C 187.554688 181.65625 187.730469 183.144531 188.046875 184.621094 C 188.359375 186.09375 188.808594 187.523438 189.394531 188.914062 C 189.976562 190.304688 190.6875 191.625 191.519531 192.882812 C 192.355469 194.140625 193.300781 195.308594 194.351562 196.386719 C 195.707031 197.839844 196.976562 199.378906 198.226562 200.933594 C 199.554688 202.253906 200.34375 203.839844 200.601562 205.691406 C 200.601562 205.691406 200.601562 210.445312 200.371094 217.652344 C 196.089844 218.90625 191.722656 219.496094 187.261719 219.421875 C 182.800781 219.347656 178.453125 218.613281 174.214844 217.214844 C 174.070312 210.320312 173.988281 205.855469 173.988281 205.691406 C 174.011719 204.800781 174.253906 203.980469 174.714844 203.21875 C 177.757812 200.082031 185.710938 197.445312 185.710938 191.757812 L 181.714844 148.917969 C 181.695312 148.554688 181.519531 148.289062 181.191406 148.128906 C 180.949219 148.03125 180.707031 148.03125 180.464844 148.128906 C 180.28125 148.203125 180.132812 148.320312 180.023438 148.484375 C 179.914062 148.644531 179.859375 148.824219 179.859375 149.023438 C 179.511719 161.9375 179.171875 174.886719 178.839844 187.875 C 178.78125 187.96875 178.714844 188.054688 178.632812 188.132812 C 178.554688 188.207031 178.464844 188.273438 178.367188 188.328125 C 178.273438 188.382812 178.171875 188.421875 178.0625 188.449219 C 177.957031 188.480469 177.847656 188.492188 177.734375 188.492188 C 177.625 188.492188 177.515625 188.480469 177.410156 188.449219 C 177.300781 188.421875 177.199219 188.382812 177.101562 188.328125 C 177.003906 188.273438 176.917969 188.207031 176.835938 188.132812 C 176.757812 188.054688 176.691406 187.96875 176.632812 187.875 C 176.160156 174.945312 175.695312 162.015625 175.238281 149.085938 C 175.234375 148.855469 175.164062 148.652344 175.027344 148.46875 C 174.886719 148.289062 174.707031 148.167969 174.488281 148.109375 C 174.363281 148.082031 174.238281 148.082031 174.113281 148.109375 C 173.886719 148.167969 173.707031 148.292969 173.566406 148.480469 C 173.425781 148.664062 173.359375 148.871094 173.363281 149.105469 C 172.945312 162.035156 172.523438 174.964844 172.09375 187.894531 C 171.964844 188.046875 171.808594 188.167969 171.625 188.253906 C 171.445312 188.339844 171.253906 188.382812 171.050781 188.382812 C 170.851562 188.382812 170.65625 188.339844 170.476562 188.253906 C 170.292969 188.167969 170.136719 188.046875 170.011719 187.894531 C 169.613281 174.976562 169.011719 162.042969 168.613281 149.125 C 168.609375 148.683594 168.40625 148.367188 168.011719 148.171875 C 167.84375 148.101562 167.667969 148.078125 167.488281 148.09375 C 167.304688 148.113281 167.140625 148.171875 166.988281 148.269531 C 166.835938 148.371094 166.714844 148.5 166.628906 148.65625 C 166.539062 148.816406 166.496094 148.984375 166.492188 149.167969 C 166.101562 162.070312 165.714844 174.976562 165.324219 187.894531 C 164.554688 188.726562 163.910156 188.726562 163.367188 187.894531 C 163.0625 174.949219 162.757812 162.007812 162.449219 149.0625 C 162.449219 148.921875 162.421875 148.785156 162.359375 148.65625 C 162.296875 148.527344 162.210938 148.421875 162.097656 148.332031 C 161.988281 148.242188 161.863281 148.183594 161.722656 148.148438 C 161.582031 148.117188 161.445312 148.117188 161.304688 148.148438 C 161.121094 148.207031 160.96875 148.3125 160.84375 148.464844 C 160.722656 148.613281 160.65625 148.789062 160.640625 148.980469 C 159.25 163.265625 157.898438 177.566406 156.578125 191.882812 C 156.578125 197.59375 164.53125 200.1875 167.574219 203.34375 C 168.035156 204.105469 168.277344 204.925781 168.300781 205.816406 C 168.300781 205.816406 168.300781 209.386719 168.113281 214.972656 C 167.378906 214.605469 166.65625 214.222656 165.941406 213.816406 C 165.226562 213.410156 164.523438 212.984375 163.835938 212.539062 C 163.144531 212.09375 162.46875 211.628906 161.804688 211.144531 C 161.140625 210.660156 160.492188 210.160156 159.855469 209.640625 C 159.21875 209.121094 158.601562 208.585938 157.996094 208.03125 C 157.390625 207.476562 156.800781 206.902344 156.226562 206.316406 C 155.65625 205.730469 155.097656 205.125 154.558594 204.507812 C 154.019531 203.890625 153.5 203.257812 152.996094 202.609375 C 152.492188 201.960938 152.007812 201.300781 151.542969 200.625 C 151.074219 199.949219 150.628906 199.261719 150.203125 198.5625 C 149.773438 197.863281 149.367188 197.148438 148.980469 196.425781 C 148.59375 195.703125 148.226562 194.972656 147.878906 194.226562 C 147.535156 193.484375 147.207031 192.730469 146.90625 191.96875 C 146.601562 191.210938 146.320312 190.441406 146.058594 189.664062 C 145.800781 188.886719 145.5625 188.101562 145.34375 187.308594 C 145.128906 186.519531 144.9375 185.722656 144.765625 184.921875 C 144.59375 184.121094 144.445312 183.316406 144.320312 182.503906 C 144.195312 181.695312 144.089844 180.882812 144.011719 180.066406 C 143.929688 179.25 143.875 178.433594 143.839844 177.613281 C 143.804688 176.796875 143.796875 175.976562 143.808594 175.15625 C 143.820312 174.339844 143.855469 173.519531 143.914062 172.703125 C 143.972656 171.882812 144.054688 171.070312 144.15625 170.257812 C 144.261719 169.445312 144.390625 168.632812 144.539062 167.828125 C 144.6875 167.023438 144.859375 166.222656 145.054688 165.425781 C 145.25 164.628906 145.46875 163.839844 145.707031 163.054688 C 145.949219 162.273438 146.210938 161.496094 146.492188 160.726562 C 146.777344 159.957031 147.082031 159.195312 147.40625 158.445312 C 147.734375 157.691406 148.082031 156.949219 148.449219 156.214844 C 148.816406 155.484375 149.203125 154.761719 149.613281 154.050781 C 150.023438 153.339844 150.449219 152.640625 150.898438 151.953125 C 151.347656 151.265625 151.8125 150.59375 152.300781 149.933594 C 152.785156 149.269531 153.289062 148.625 153.8125 147.992188 C 154.335938 147.359375 154.875 146.742188 155.433594 146.140625 C 155.988281 145.539062 156.5625 144.953125 157.152344 144.382812 C 157.746094 143.8125 158.351562 143.257812 158.972656 142.722656 C 159.59375 142.1875 160.230469 141.667969 160.878906 141.167969 C 161.53125 140.667969 162.195312 140.183594 162.875 139.722656 C 163.550781 139.257812 164.242188 138.8125 164.945312 138.390625 C 165.648438 137.964844 166.363281 137.558594 167.085938 137.175781 C 167.8125 136.789062 168.550781 136.425781 169.296875 136.082031 C 170.042969 135.738281 170.796875 135.417969 171.5625 135.117188 C 172.324219 134.816406 173.097656 134.535156 173.878906 134.277344 C 174.65625 134.019531 175.445312 133.785156 176.238281 133.570312 C 177.03125 133.359375 177.832031 133.167969 178.632812 132.996094 C 179.4375 132.828125 180.246094 132.683594 181.058594 132.558594 C 181.871094 132.433594 182.6875 132.335938 183.503906 132.257812 C 184.324219 132.179688 185.144531 132.125 185.964844 132.089844 C 186.785156 132.058594 187.605469 132.050781 188.429688 132.0625 C 189.25 132.078125 190.070312 132.113281 190.890625 132.175781 C 191.710938 132.234375 192.527344 132.316406 193.34375 132.421875 C 194.15625 132.53125 194.96875 132.65625 195.777344 132.808594 C 196.585938 132.960938 197.386719 133.132812 198.183594 133.332031 C 198.984375 133.527344 199.773438 133.746094 200.558594 133.984375 C 201.347656 134.226562 202.125 134.488281 202.894531 134.773438 C 203.664062 135.058594 204.429688 135.363281 205.183594 135.691406 C 205.933594 136.015625 206.679688 136.363281 207.414062 136.734375 C 208.148438 137.101562 208.871094 137.492188 209.582031 137.898438 C 210.292969 138.308594 210.996094 138.738281 211.683594 139.183594 C 212.371094 139.632812 213.046875 140.101562 213.707031 140.585938 C 214.367188 141.074219 215.015625 141.578125 215.648438 142.101562 C 216.28125 142.621094 216.898438 143.164062 217.503906 143.71875 C 218.105469 144.277344 218.691406 144.851562 219.261719 145.441406 C 219.832031 146.03125 220.386719 146.636719 220.921875 147.257812 C 221.460938 147.875 221.976562 148.511719 222.480469 149.164062 C 222.980469 149.8125 223.460938 150.476562 223.925781 151.152344 C 224.386719 151.828125 224.832031 152.519531 225.253906 153.222656 C 225.679688 153.921875 226.082031 154.636719 226.46875 155.359375 C 226.851562 156.085938 227.214844 156.820312 227.558594 157.566406 C 227.902344 158.308594 228.222656 159.0625 228.523438 159.824219 C 228.824219 160.589844 229.101562 161.359375 229.359375 162.136719 C 229.613281 162.917969 229.851562 163.703125 230.0625 164.492188 C 230.273438 165.285156 230.464844 166.082031 230.632812 166.882812 C 230.800781 167.6875 230.945312 168.492188 231.066406 169.304688 C 231.191406 170.113281 231.289062 170.925781 231.367188 171.742188 C 231.441406 172.558594 231.496094 173.375 231.527344 174.195312 C 231.554688 175.015625 231.5625 175.832031 231.546875 176.652344 C 231.53125 177.472656 231.492188 178.289062 231.429688 179.105469 C 231.367188 179.925781 231.285156 180.738281 231.175781 181.550781 C 231.066406 182.363281 230.9375 183.171875 230.785156 183.976562 C 230.628906 184.78125 230.453125 185.582031 230.257812 186.378906 C 230.058594 187.175781 229.835938 187.964844 229.59375 188.746094 C 229.351562 189.527344 229.085938 190.304688 228.800781 191.070312 C 228.511719 191.839844 228.203125 192.601562 227.875 193.351562 C 227.546875 194.101562 227.195312 194.84375 226.824219 195.574219 C 226.453125 196.304688 226.0625 197.023438 225.648438 197.734375 C 225.238281 198.441406 224.804688 199.140625 224.355469 199.824219 C 223.902344 200.511719 223.433594 201.183594 222.945312 201.839844 C 222.457031 202.5 221.949219 203.144531 221.425781 203.773438 C 220.898438 204.40625 220.355469 205.019531 219.796875 205.621094 C 219.234375 206.21875 218.660156 206.804688 218.066406 207.371094 C 217.472656 207.9375 216.867188 208.488281 216.242188 209.023438 C 215.617188 209.554688 214.980469 210.070312 214.328125 210.570312 C 213.675781 211.066406 213.007812 211.546875 212.328125 212.007812 C 211.648438 212.464844 210.957031 212.90625 210.25 213.328125 C 209.546875 213.75 208.828125 214.152344 208.101562 214.535156 C 207.375 214.914062 206.636719 215.277344 205.890625 215.617188 Z M 205.867188 215.492188 " fill-opacity="1" fill-rule="evenodd"/></g><g fill="#0cb454" fill-opacity="1"><g transform="translate(93.562498, 274.835708)"><g><path d="M 22.046875 0 L 15.84375 0 L 15.84375 -9.3125 L 8.671875 -9.3125 L 8.671875 0 L 2.46875 0 L 2.46875 -22.84375 L 8.671875 -22.84375 L 8.671875 -14.375 L 15.84375 -14.375 L 15.84375 -22.84375 L 22.046875 -22.84375 Z M 22.046875 0 "/></g></g></g><g fill="#0cb454" fill-opacity="1"><g transform="translate(118.072137, 274.835708)"><g><path d="M 19.015625 -8.890625 C 19.015625 -5.992188 18.234375 -3.734375 16.671875 -2.109375 C 15.117188 -0.492188 12.941406 0.3125 10.140625 0.3125 C 7.453125 0.3125 5.3125 -0.515625 3.71875 -2.171875 C 2.132812 -3.828125 1.34375 -6.066406 1.34375 -8.890625 C 1.34375 -11.773438 2.117188 -14.015625 3.671875 -15.609375 C 5.234375 -17.210938 7.421875 -18.015625 10.234375 -18.015625 C 11.972656 -18.015625 13.507812 -17.644531 14.84375 -16.90625 C 16.175781 -16.164062 17.203125 -15.101562 17.921875 -13.71875 C 18.648438 -12.34375 19.015625 -10.734375 19.015625 -8.890625 Z M 7.546875 -8.890625 C 7.546875 -7.367188 7.75 -6.207031 8.15625 -5.40625 C 8.5625 -4.613281 9.242188 -4.21875 10.203125 -4.21875 C 11.148438 -4.21875 11.816406 -4.613281 12.203125 -5.40625 C 12.597656 -6.207031 12.796875 -7.367188 12.796875 -8.890625 C 12.796875 -10.398438 12.597656 -11.539062 12.203125 -12.3125 C 11.804688 -13.082031 11.128906 -13.46875 10.171875 -13.46875 C 9.234375 -13.46875 8.5625 -13.082031 8.15625 -12.3125 C 7.75 -11.550781 7.546875 -10.410156 7.546875 -8.890625 Z M 7.546875 -8.890625 "/></g></g></g><g fill="#0cb454" fill-opacity="1"><g transform="translate(138.457782, 274.835708)"><g><path d="M 23.84375 0 L 23.84375 -9.625 C 23.84375 -10.820312 23.675781 -11.71875 23.34375 -12.3125 C 23.019531 -12.914062 22.503906 -13.21875 21.796875 -13.21875 C 20.859375 -13.21875 20.171875 -12.816406 19.734375 -12.015625 C 19.296875 -11.210938 19.078125 -9.957031 19.078125 -8.25 L 19.078125 0 L 12.953125 0 L 12.953125 -9.625 C 12.953125 -10.820312 12.796875 -11.71875 12.484375 -12.3125 C 12.171875 -12.914062 11.664062 -13.21875 10.96875 -13.21875 C 10.007812 -13.21875 9.3125 -12.789062 8.875 -11.9375 C 8.4375 -11.082031 8.21875 -9.6875 8.21875 -7.75 L 8.21875 0 L 2.109375 0 L 2.109375 -17.703125 L 6.71875 -17.703125 L 7.484375 -15.515625 L 7.84375 -15.515625 C 8.3125 -16.328125 8.988281 -16.945312 9.875 -17.375 C 10.769531 -17.800781 11.785156 -18.015625 12.921875 -18.015625 C 15.472656 -18.015625 17.265625 -17.238281 18.296875 -15.6875 L 18.78125 -15.6875 C 19.28125 -16.414062 19.972656 -16.984375 20.859375 -17.390625 C 21.753906 -17.804688 22.738281 -18.015625 23.8125 -18.015625 C 25.90625 -18.015625 27.453125 -17.476562 28.453125 -16.40625 C 29.453125 -15.332031 29.953125 -13.703125 29.953125 -11.515625 L 29.953125 0 Z M 23.84375 0 "/></g></g></g><g fill="#0cb454" fill-opacity="1"><g transform="translate(170.449967, 274.835708)"><g><path d="M 10.65625 0.3125 C 7.707031 0.3125 5.414062 -0.46875 3.78125 -2.03125 C 2.15625 -3.601562 1.34375 -5.835938 1.34375 -8.734375 C 1.34375 -11.722656 2.097656 -14.015625 3.609375 -15.609375 C 5.117188 -17.210938 7.273438 -18.015625 10.078125 -18.015625 C 12.742188 -18.015625 14.800781 -17.316406 16.25 -15.921875 C 17.707031 -14.535156 18.4375 -12.535156 18.4375 -9.921875 L 18.4375 -7.203125 L 7.515625 -7.203125 C 7.554688 -6.210938 7.914062 -5.4375 8.59375 -4.875 C 9.28125 -4.3125 10.210938 -4.03125 11.390625 -4.03125 C 12.460938 -4.03125 13.445312 -4.128906 14.34375 -4.328125 C 15.25 -4.535156 16.226562 -4.882812 17.28125 -5.375 L 17.28125 -0.984375 C 16.320312 -0.492188 15.332031 -0.15625 14.3125 0.03125 C 13.289062 0.21875 12.070312 0.3125 10.65625 0.3125 Z M 10.296875 -13.859375 C 9.578125 -13.859375 8.972656 -13.628906 8.484375 -13.171875 C 8.003906 -12.722656 7.722656 -12.015625 7.640625 -11.046875 L 12.890625 -11.046875 C 12.867188 -11.898438 12.625 -12.582031 12.15625 -13.09375 C 11.695312 -13.601562 11.078125 -13.859375 10.296875 -13.859375 Z M 10.296875 -13.859375 "/></g></g></g><g fill="#0cb454" fill-opacity="1"><g transform="translate(190.226387, 274.835708)"><g><path d="M 12.421875 0 L 7.75 -16.453125 L 7.609375 -16.453125 C 7.828125 -13.648438 7.9375 -11.472656 7.9375 -9.921875 L 7.9375 0 L 2.46875 0 L 2.46875 -22.84375 L 10.6875 -22.84375 L 15.453125 -6.625 L 15.578125 -6.625 L 20.25 -22.84375 L 28.484375 -22.84375 L 28.484375 0 L 22.8125 0 L 22.8125 -10.015625 C 22.8125 -10.535156 22.816406 -11.113281 22.828125 -11.75 C 22.847656 -12.382812 22.921875 -13.941406 23.046875 -16.421875 L 22.90625 -16.421875 L 18.296875 0 Z M 12.421875 0 "/></g></g></g><g fill="#0cb454" fill-opacity="1"><g transform="translate(221.156331, 274.835708)"><g><path d="M 13.65625 0 L 12.484375 -2.34375 L 12.359375 -2.34375 C 11.535156 -1.320312 10.695312 -0.625 9.84375 -0.25 C 8.988281 0.125 7.882812 0.3125 6.53125 0.3125 C 4.863281 0.3125 3.550781 -0.1875 2.59375 -1.1875 C 1.632812 -2.1875 1.15625 -3.59375 1.15625 -5.40625 C 1.15625 -7.289062 1.8125 -8.691406 3.125 -9.609375 C 4.4375 -10.535156 6.335938 -11.054688 8.828125 -11.171875 L 11.78125 -11.265625 L 11.78125 -11.515625 C 11.78125 -12.972656 11.0625 -13.703125 9.625 -13.703125 C 8.332031 -13.703125 6.691406 -13.265625 4.703125 -12.390625 L 2.9375 -16.421875 C 5 -17.484375 7.601562 -18.015625 10.75 -18.015625 C 13.019531 -18.015625 14.773438 -17.453125 16.015625 -16.328125 C 17.265625 -15.203125 17.890625 -13.628906 17.890625 -11.609375 L 17.890625 0 Z M 9.125 -4 C 9.863281 -4 10.492188 -4.234375 11.015625 -4.703125 C 11.546875 -5.171875 11.8125 -5.78125 11.8125 -6.53125 L 11.8125 -7.90625 L 10.40625 -7.84375 C 8.394531 -7.769531 7.390625 -7.03125 7.390625 -5.625 C 7.390625 -4.539062 7.96875 -4 9.125 -4 Z M 9.125 -4 "/></g></g></g><g fill="#0cb454" fill-opacity="1"><g transform="translate(241.088962, 274.835708)"><g><path d="M 7.609375 0.3125 C 6.347656 0.3125 5.242188 -0.046875 4.296875 -0.765625 C 3.359375 -1.484375 2.628906 -2.539062 2.109375 -3.9375 C 1.597656 -5.332031 1.34375 -6.960938 1.34375 -8.828125 C 1.34375 -11.703125 1.921875 -13.953125 3.078125 -15.578125 C 4.234375 -17.203125 5.820312 -18.015625 7.84375 -18.015625 C 8.832031 -18.015625 9.695312 -17.816406 10.4375 -17.421875 C 11.1875 -17.023438 11.867188 -16.359375 12.484375 -15.421875 L 12.609375 -15.421875 C 12.410156 -16.804688 12.3125 -18.191406 12.3125 -19.578125 L 12.3125 -24.3125 L 18.46875 -24.3125 L 18.46875 0 L 13.859375 0 L 12.546875 -2.234375 L 12.3125 -2.234375 C 11.257812 -0.535156 9.691406 0.3125 7.609375 0.3125 Z M 10.109375 -4.515625 C 11.085938 -4.515625 11.773438 -4.820312 12.171875 -5.4375 C 12.578125 -6.050781 12.796875 -7 12.828125 -8.28125 L 12.828125 -8.765625 C 12.828125 -10.328125 12.601562 -11.4375 12.15625 -12.09375 C 11.707031 -12.757812 11.003906 -13.09375 10.046875 -13.09375 C 9.242188 -13.09375 8.617188 -12.710938 8.171875 -11.953125 C 7.734375 -11.203125 7.515625 -10.128906 7.515625 -8.734375 C 7.515625 -7.359375 7.738281 -6.3125 8.1875 -5.59375 C 8.632812 -4.875 9.273438 -4.515625 10.109375 -4.515625 Z M 10.109375 -4.515625 "/></g></g></g><g fill="#0cb454" fill-opacity="1"><g transform="translate(261.662062, 274.835708)"><g><path d="M 10.65625 0.3125 C 7.707031 0.3125 5.414062 -0.46875 3.78125 -2.03125 C 2.15625 -3.601562 1.34375 -5.835938 1.34375 -8.734375 C 1.34375 -11.722656 2.097656 -14.015625 3.609375 -15.609375 C 5.117188 -17.210938 7.273438 -18.015625 10.078125 -18.015625 C 12.742188 -18.015625 14.800781 -17.316406 16.25 -15.921875 C 17.707031 -14.535156 18.4375 -12.535156 18.4375 -9.921875 L 18.4375 -7.203125 L 7.515625 -7.203125 C 7.554688 -6.210938 7.914062 -5.4375 8.59375 -4.875 C 9.28125 -4.3125 10.210938 -4.03125 11.390625 -4.03125 C 12.460938 -4.03125 13.445312 -4.128906 14.34375 -4.328125 C 15.25 -4.535156 16.226562 -4.882812 17.28125 -5.375 L 17.28125 -0.984375 C 16.320312 -0.492188 15.332031 -0.15625 14.3125 0.03125 C 13.289062 0.21875 12.070312 0.3125 10.65625 0.3125 Z M 10.296875 -13.859375 C 9.578125 -13.859375 8.972656 -13.628906 8.484375 -13.171875 C 8.003906 -12.722656 7.722656 -12.015625 7.640625 -11.046875 L 12.890625 -11.046875 C 12.867188 -11.898438 12.625 -12.582031 12.15625 -13.09375 C 11.695312 -13.601562 11.078125 -13.859375 10.296875 -13.859375 Z M 10.296875 -13.859375 "/></g></g></g><g fill="#0cb454" fill-opacity="1"><g transform="translate(101.542967, 294.985675)"><g><path d="M 7.4375 -7.125 C 7.4375 -6.15625 7.109375 -5.410156 6.453125 -4.890625 C 5.796875 -4.378906 4.863281 -4.125 3.65625 -4.125 L 2.109375 -4.125 L 2.109375 0 L 1.421875 0 L 1.421875 -10 L 3.859375 -10 C 6.242188 -10 7.4375 -9.039062 7.4375 -7.125 Z M 2.109375 -4.734375 L 3.484375 -4.734375 C 4.609375 -4.734375 5.421875 -4.914062 5.921875 -5.28125 C 6.421875 -5.65625 6.671875 -6.257812 6.671875 -7.09375 C 6.671875 -7.863281 6.429688 -8.429688 5.953125 -8.796875 C 5.484375 -9.171875 4.753906 -9.359375 3.765625 -9.359375 L 2.109375 -9.359375 Z M 2.109375 -4.734375 "/></g></g></g><g fill="#0cb454" fill-opacity="1"><g transform="translate(109.727849, 294.985675)"><g><path d="M 4.171875 -7.578125 C 4.484375 -7.578125 4.820312 -7.546875 5.1875 -7.484375 L 5.046875 -6.828125 C 4.742188 -6.910156 4.425781 -6.953125 4.09375 -6.953125 C 3.457031 -6.953125 2.9375 -6.679688 2.53125 -6.140625 C 2.125 -5.597656 1.921875 -4.921875 1.921875 -4.109375 L 1.921875 0 L 1.25 0 L 1.25 -7.4375 L 1.8125 -7.4375 L 1.890625 -6.09375 L 1.9375 -6.09375 C 2.238281 -6.632812 2.5625 -7.015625 2.90625 -7.234375 C 3.257812 -7.460938 3.679688 -7.578125 4.171875 -7.578125 Z M 4.171875 -7.578125 "/></g></g></g><g fill="#0cb454" fill-opacity="1"><g transform="translate(115.173051, 294.985675)"><g><path d="M 4.25 0.140625 C 3.164062 0.140625 2.320312 -0.191406 1.71875 -0.859375 C 1.113281 -1.523438 0.8125 -2.457031 0.8125 -3.65625 C 0.8125 -4.84375 1.101562 -5.789062 1.6875 -6.5 C 2.269531 -7.21875 3.054688 -7.578125 4.046875 -7.578125 C 4.921875 -7.578125 5.609375 -7.269531 6.109375 -6.65625 C 6.617188 -6.050781 6.875 -5.222656 6.875 -4.171875 L 6.875 -3.625 L 1.53125 -3.625 C 1.53125 -2.601562 1.765625 -1.820312 2.234375 -1.28125 C 2.703125 -0.75 3.375 -0.484375 4.25 -0.484375 C 4.664062 -0.484375 5.035156 -0.507812 5.359375 -0.5625 C 5.679688 -0.625 6.085938 -0.753906 6.578125 -0.953125 L 6.578125 -0.328125 C 6.160156 -0.148438 5.773438 -0.03125 5.421875 0.03125 C 5.066406 0.101562 4.675781 0.140625 4.25 0.140625 Z M 4.046875 -6.96875 C 3.328125 -6.96875 2.75 -6.734375 2.3125 -6.265625 C 1.882812 -5.796875 1.632812 -5.113281 1.5625 -4.21875 L 6.15625 -4.21875 C 6.15625 -5.082031 5.96875 -5.753906 5.59375 -6.234375 C 5.21875 -6.722656 4.703125 -6.96875 4.046875 -6.96875 Z M 4.046875 -6.96875 "/></g></g></g><g fill="#0cb454" fill-opacity="1"><g transform="translate(122.852356, 294.985675)"><g><path d="M 10.53125 0 L 10.53125 -4.875 C 10.53125 -5.601562 10.390625 -6.128906 10.109375 -6.453125 C 9.828125 -6.785156 9.394531 -6.953125 8.8125 -6.953125 C 8.039062 -6.953125 7.472656 -6.742188 7.109375 -6.328125 C 6.742188 -5.910156 6.5625 -5.253906 6.5625 -4.359375 L 6.5625 0 L 5.875 0 L 5.875 -5.078125 C 5.875 -6.328125 5.300781 -6.953125 4.15625 -6.953125 C 3.375 -6.953125 2.804688 -6.722656 2.453125 -6.265625 C 2.097656 -5.816406 1.921875 -5.097656 1.921875 -4.109375 L 1.921875 0 L 1.25 0 L 1.25 -7.4375 L 1.8125 -7.4375 L 1.953125 -6.40625 L 1.984375 -6.40625 C 2.191406 -6.78125 2.484375 -7.066406 2.859375 -7.265625 C 3.242188 -7.472656 3.660156 -7.578125 4.109375 -7.578125 C 5.285156 -7.578125 6.039062 -7.132812 6.375 -6.25 L 6.40625 -6.25 C 6.644531 -6.675781 6.96875 -7.003906 7.375 -7.234375 C 7.78125 -7.460938 8.242188 -7.578125 8.765625 -7.578125 C 9.578125 -7.578125 10.1875 -7.359375 10.59375 -6.921875 C 11 -6.492188 11.203125 -5.804688 11.203125 -4.859375 L 11.203125 0 Z M 10.53125 0 "/></g></g></g><g fill="#0cb454" fill-opacity="1"><g transform="translate(135.204833, 294.985675)"><g><path d="M 1.921875 0 L 1.25 0 L 1.25 -7.4375 L 1.921875 -7.4375 Z M 1.15625 -9.5 C 1.15625 -9.9375 1.296875 -10.15625 1.578125 -10.15625 C 1.722656 -10.15625 1.832031 -10.097656 1.90625 -9.984375 C 1.988281 -9.867188 2.03125 -9.707031 2.03125 -9.5 C 2.03125 -9.289062 1.988281 -9.125 1.90625 -9 C 1.832031 -8.882812 1.722656 -8.828125 1.578125 -8.828125 C 1.296875 -8.828125 1.15625 -9.050781 1.15625 -9.5 Z M 1.15625 -9.5 "/></g></g></g><g fill="#0cb454" fill-opacity="1"><g transform="translate(138.368106, 294.985675)"><g><path d="M 1.828125 -7.4375 L 1.828125 -2.625 C 1.828125 -1.875 1.984375 -1.328125 2.296875 -0.984375 C 2.617188 -0.648438 3.109375 -0.484375 3.765625 -0.484375 C 4.648438 -0.484375 5.300781 -0.703125 5.71875 -1.140625 C 6.132812 -1.585938 6.34375 -2.316406 6.34375 -3.328125 L 6.34375 -7.4375 L 7.015625 -7.4375 L 7.015625 0 L 6.4375 0 L 6.3125 -1.03125 L 6.28125 -1.03125 C 5.789062 -0.25 4.929688 0.140625 3.703125 0.140625 C 2.003906 0.140625 1.15625 -0.765625 1.15625 -2.578125 L 1.15625 -7.4375 Z M 1.828125 -7.4375 "/></g></g></g><g fill="#0cb454" fill-opacity="1"><g transform="translate(146.62131, 294.985675)"><g><path d="M 10.53125 0 L 10.53125 -4.875 C 10.53125 -5.601562 10.390625 -6.128906 10.109375 -6.453125 C 9.828125 -6.785156 9.394531 -6.953125 8.8125 -6.953125 C 8.039062 -6.953125 7.472656 -6.742188 7.109375 -6.328125 C 6.742188 -5.910156 6.5625 -5.253906 6.5625 -4.359375 L 6.5625 0 L 5.875 0 L 5.875 -5.078125 C 5.875 -6.328125 5.300781 -6.953125 4.15625 -6.953125 C 3.375 -6.953125 2.804688 -6.722656 2.453125 -6.265625 C 2.097656 -5.816406 1.921875 -5.097656 1.921875 -4.109375 L 1.921875 0 L 1.25 0 L 1.25 -7.4375 L 1.8125 -7.4375 L 1.953125 -6.40625 L 1.984375 -6.40625 C 2.191406 -6.78125 2.484375 -7.066406 2.859375 -7.265625 C 3.242188 -7.472656 3.660156 -7.578125 4.109375 -7.578125 C 5.285156 -7.578125 6.039062 -7.132812 6.375 -6.25 L 6.40625 -6.25 C 6.644531 -6.675781 6.96875 -7.003906 7.375 -7.234375 C 7.78125 -7.460938 8.242188 -7.578125 8.765625 -7.578125 C 9.578125 -7.578125 10.1875 -7.359375 10.59375 -6.921875 C 11 -6.492188 11.203125 -5.804688 11.203125 -4.859375 L 11.203125 0 Z M 10.53125 0 "/></g></g></g><g fill="#0cb454" fill-opacity="1"><g transform="translate(158.973787, 294.985675)"><g/></g></g><g fill="#0cb454" fill-opacity="1"><g transform="translate(162.608476, 294.985675)"><g><path d="M 3.890625 0.140625 C 2.910156 0.140625 2.148438 -0.179688 1.609375 -0.828125 C 1.078125 -1.484375 0.8125 -2.421875 0.8125 -3.640625 C 0.8125 -4.890625 1.078125 -5.859375 1.609375 -6.546875 C 2.148438 -7.234375 2.925781 -7.578125 3.9375 -7.578125 C 5.007812 -7.578125 5.8125 -7.179688 6.34375 -6.390625 L 6.390625 -6.390625 L 6.515625 -7.4375 L 7.078125 -7.4375 L 7.078125 3.359375 L 6.40625 3.359375 L 6.40625 0.53125 C 6.40625 -0.0195312 6.421875 -0.582031 6.453125 -1.15625 L 6.40625 -1.15625 C 5.875 -0.289062 5.035156 0.140625 3.890625 0.140625 Z M 3.90625 -0.46875 C 4.800781 -0.46875 5.441406 -0.710938 5.828125 -1.203125 C 6.210938 -1.703125 6.40625 -2.539062 6.40625 -3.71875 L 6.40625 -3.796875 C 6.40625 -4.910156 6.210938 -5.710938 5.828125 -6.203125 C 5.441406 -6.703125 4.828125 -6.953125 3.984375 -6.953125 C 3.179688 -6.953125 2.570312 -6.671875 2.15625 -6.109375 C 1.738281 -5.546875 1.53125 -4.71875 1.53125 -3.625 C 1.53125 -2.582031 1.734375 -1.796875 2.140625 -1.265625 C 2.546875 -0.734375 3.132812 -0.46875 3.90625 -0.46875 Z M 3.90625 -0.46875 "/></g></g></g><g fill="#0cb454" fill-opacity="1"><g transform="translate(170.936833, 294.985675)"><g><path d="M 1.828125 -7.4375 L 1.828125 -2.625 C 1.828125 -1.875 1.984375 -1.328125 2.296875 -0.984375 C 2.617188 -0.648438 3.109375 -0.484375 3.765625 -0.484375 C 4.648438 -0.484375 5.300781 -0.703125 5.71875 -1.140625 C 6.132812 -1.585938 6.34375 -2.316406 6.34375 -3.328125 L 6.34375 -7.4375 L 7.015625 -7.4375 L 7.015625 0 L 6.4375 0 L 6.3125 -1.03125 L 6.28125 -1.03125 C 5.789062 -0.25 4.929688 0.140625 3.703125 0.140625 C 2.003906 0.140625 1.15625 -0.765625 1.15625 -2.578125 L 1.15625 -7.4375 Z M 1.828125 -7.4375 "/></g></g></g><g fill="#0cb454" fill-opacity="1"><g transform="translate(179.190037, 294.985675)"><g><path d="M 5.75 0 L 5.578125 -1.171875 L 5.53125 -1.171875 C 5.15625 -0.691406 4.769531 -0.351562 4.375 -0.15625 C 3.976562 0.0390625 3.515625 0.140625 2.984375 0.140625 C 2.253906 0.140625 1.6875 -0.046875 1.28125 -0.421875 C 0.875 -0.796875 0.671875 -1.3125 0.671875 -1.96875 C 0.671875 -2.695312 0.972656 -3.257812 1.578125 -3.65625 C 2.179688 -4.0625 3.054688 -4.273438 4.203125 -4.296875 L 5.609375 -4.34375 L 5.609375 -4.828125 C 5.609375 -5.535156 5.460938 -6.066406 5.171875 -6.421875 C 4.890625 -6.785156 4.429688 -6.96875 3.796875 -6.96875 C 3.109375 -6.96875 2.394531 -6.78125 1.65625 -6.40625 L 1.40625 -6.984375 C 2.21875 -7.367188 3.023438 -7.5625 3.828125 -7.5625 C 4.640625 -7.5625 5.242188 -7.347656 5.640625 -6.921875 C 6.046875 -6.503906 6.25 -5.84375 6.25 -4.9375 L 6.25 0 Z M 3.015625 -0.484375 C 3.816406 -0.484375 4.441406 -0.707031 4.890625 -1.15625 C 5.347656 -1.613281 5.578125 -2.242188 5.578125 -3.046875 L 5.578125 -3.78125 L 4.28125 -3.71875 C 3.238281 -3.675781 2.492188 -3.515625 2.046875 -3.234375 C 1.609375 -2.960938 1.390625 -2.535156 1.390625 -1.953125 C 1.390625 -1.484375 1.53125 -1.117188 1.8125 -0.859375 C 2.101562 -0.609375 2.503906 -0.484375 3.015625 -0.484375 Z M 3.015625 -0.484375 "/></g></g></g><g fill="#0cb454" fill-opacity="1"><g transform="translate(186.60289, 294.985675)"><g><path d="M 1.921875 0 L 1.25 0 L 1.25 -10.640625 L 1.921875 -10.640625 Z M 1.921875 0 "/></g></g></g><g fill="#0cb454" fill-opacity="1"><g transform="translate(189.766162, 294.985675)"><g><path d="M 1.921875 0 L 1.25 0 L 1.25 -7.4375 L 1.921875 -7.4375 Z M 1.15625 -9.5 C 1.15625 -9.9375 1.296875 -10.15625 1.578125 -10.15625 C 1.722656 -10.15625 1.832031 -10.097656 1.90625 -9.984375 C 1.988281 -9.867188 2.03125 -9.707031 2.03125 -9.5 C 2.03125 -9.289062 1.988281 -9.125 1.90625 -9 C 1.832031 -8.882812 1.722656 -8.828125 1.578125 -8.828125 C 1.296875 -8.828125 1.15625 -9.050781 1.15625 -9.5 Z M 1.15625 -9.5 "/></g></g></g><g fill="#0cb454" fill-opacity="1"><g transform="translate(192.929435, 294.985675)"><g><path d="M 3.203125 -0.46875 C 3.628906 -0.46875 4.003906 -0.503906 4.328125 -0.578125 L 4.328125 -0.03125 C 3.992188 0.0820312 3.613281 0.140625 3.1875 0.140625 C 2.53125 0.140625 2.046875 -0.0351562 1.734375 -0.390625 C 1.421875 -0.742188 1.265625 -1.296875 1.265625 -2.046875 L 1.265625 -6.84375 L 0.171875 -6.84375 L 0.171875 -7.234375 L 1.265625 -7.546875 L 1.609375 -9.234375 L 1.96875 -9.234375 L 1.96875 -7.4375 L 4.140625 -7.4375 L 4.140625 -6.84375 L 1.96875 -6.84375 L 1.96875 -2.140625 C 1.96875 -1.566406 2.066406 -1.144531 2.265625 -0.875 C 2.460938 -0.601562 2.773438 -0.46875 3.203125 -0.46875 Z M 3.203125 -0.46875 "/></g></g></g><g fill="#0cb454" fill-opacity="1"><g transform="translate(197.616271, 294.985675)"><g><path d="M 0 -7.4375 L 0.703125 -7.4375 L 2.265625 -3.265625 C 2.742188 -1.984375 3.046875 -1.117188 3.171875 -0.671875 L 3.21875 -0.671875 C 3.40625 -1.253906 3.71875 -2.128906 4.15625 -3.296875 L 5.734375 -7.4375 L 6.421875 -7.4375 L 3.09375 1.203125 C 2.820312 1.898438 2.59375 2.375 2.40625 2.625 C 2.226562 2.875 2.019531 3.054688 1.78125 3.171875 C 1.539062 3.296875 1.242188 3.359375 0.890625 3.359375 C 0.628906 3.359375 0.34375 3.3125 0.03125 3.21875 L 0.03125 2.625 C 0.289062 2.695312 0.570312 2.734375 0.875 2.734375 C 1.113281 2.734375 1.320312 2.675781 1.5 2.5625 C 1.675781 2.457031 1.832031 2.289062 1.96875 2.0625 C 2.113281 1.832031 2.28125 1.46875 2.46875 0.96875 C 2.664062 0.46875 2.789062 0.144531 2.84375 0 Z M 0 -7.4375 "/></g></g></g><g fill="#0cb454" fill-opacity="1"><g transform="translate(204.038466, 294.985675)"><g/></g></g><g fill="#0cb454" fill-opacity="1"><g transform="translate(207.673155, 294.985675)"><g><path d="M 4.171875 -7.578125 C 4.484375 -7.578125 4.820312 -7.546875 5.1875 -7.484375 L 5.046875 -6.828125 C 4.742188 -6.910156 4.425781 -6.953125 4.09375 -6.953125 C 3.457031 -6.953125 2.9375 -6.679688 2.53125 -6.140625 C 2.125 -5.597656 1.921875 -4.921875 1.921875 -4.109375 L 1.921875 0 L 1.25 0 L 1.25 -7.4375 L 1.8125 -7.4375 L 1.890625 -6.09375 L 1.9375 -6.09375 C 2.238281 -6.632812 2.5625 -7.015625 2.90625 -7.234375 C 3.257812 -7.460938 3.679688 -7.578125 4.171875 -7.578125 Z M 4.171875 -7.578125 "/></g></g></g><g fill="#0cb454" fill-opacity="1"><g transform="translate(213.118357, 294.985675)"><g><path d="M 4.25 0.140625 C 3.164062 0.140625 2.320312 -0.191406 1.71875 -0.859375 C 1.113281 -1.523438 0.8125 -2.457031 0.8125 -3.65625 C 0.8125 -4.84375 1.101562 -5.789062 1.6875 -6.5 C 2.269531 -7.21875 3.054688 -7.578125 4.046875 -7.578125 C 4.921875 -7.578125 5.609375 -7.269531 6.109375 -6.65625 C 6.617188 -6.050781 6.875 -5.222656 6.875 -4.171875 L 6.875 -3.625 L 1.53125 -3.625 C 1.53125 -2.601562 1.765625 -1.820312 2.234375 -1.28125 C 2.703125 -0.75 3.375 -0.484375 4.25 -0.484375 C 4.664062 -0.484375 5.035156 -0.507812 5.359375 -0.5625 C 5.679688 -0.625 6.085938 -0.753906 6.578125 -0.953125 L 6.578125 -0.328125 C 6.160156 -0.148438 5.773438 -0.03125 5.421875 0.03125 C 5.066406 0.101562 4.675781 0.140625 4.25 0.140625 Z M 4.046875 -6.96875 C 3.328125 -6.96875 2.75 -6.734375 2.3125 -6.265625 C 1.882812 -5.796875 1.632812 -5.113281 1.5625 -4.21875 L 6.15625 -4.21875 C 6.15625 -5.082031 5.96875 -5.753906 5.59375 -6.234375 C 5.21875 -6.722656 4.703125 -6.96875 4.046875 -6.96875 Z M 4.046875 -6.96875 "/></g></g></g><g fill="#0cb454" fill-opacity="1"><g transform="translate(220.797662, 294.985675)"><g><path d="M 5.859375 -1.9375 C 5.859375 -1.269531 5.601562 -0.753906 5.09375 -0.390625 C 4.582031 -0.0351562 3.863281 0.140625 2.9375 0.140625 C 1.945312 0.140625 1.160156 -0.015625 0.578125 -0.328125 L 0.578125 -1.046875 C 1.328125 -0.679688 2.113281 -0.5 2.9375 -0.5 C 3.675781 -0.5 4.234375 -0.617188 4.609375 -0.859375 C 4.992188 -1.097656 5.1875 -1.421875 5.1875 -1.828125 C 5.1875 -2.203125 5.03125 -2.515625 4.71875 -2.765625 C 4.414062 -3.023438 3.921875 -3.28125 3.234375 -3.53125 C 2.492188 -3.800781 1.972656 -4.03125 1.671875 -4.21875 C 1.367188 -4.414062 1.140625 -4.632812 0.984375 -4.875 C 0.835938 -5.125 0.765625 -5.421875 0.765625 -5.765625 C 0.765625 -6.328125 0.992188 -6.769531 1.453125 -7.09375 C 1.921875 -7.414062 2.578125 -7.578125 3.421875 -7.578125 C 4.222656 -7.578125 4.984375 -7.425781 5.703125 -7.125 L 5.453125 -6.515625 C 4.722656 -6.804688 4.046875 -6.953125 3.421875 -6.953125 C 2.816406 -6.953125 2.332031 -6.851562 1.96875 -6.65625 C 1.613281 -6.457031 1.4375 -6.179688 1.4375 -5.828125 C 1.4375 -5.441406 1.570312 -5.128906 1.84375 -4.890625 C 2.125 -4.660156 2.664062 -4.398438 3.46875 -4.109375 C 4.144531 -3.867188 4.632812 -3.648438 4.9375 -3.453125 C 5.238281 -3.265625 5.46875 -3.046875 5.625 -2.796875 C 5.78125 -2.554688 5.859375 -2.269531 5.859375 -1.9375 Z M 5.859375 -1.9375 "/></g></g></g><g fill="#0cb454" fill-opacity="1"><g transform="translate(227.315507, 294.985675)"><g><path d="M 3.203125 -0.46875 C 3.628906 -0.46875 4.003906 -0.503906 4.328125 -0.578125 L 4.328125 -0.03125 C 3.992188 0.0820312 3.613281 0.140625 3.1875 0.140625 C 2.53125 0.140625 2.046875 -0.0351562 1.734375 -0.390625 C 1.421875 -0.742188 1.265625 -1.296875 1.265625 -2.046875 L 1.265625 -6.84375 L 0.171875 -6.84375 L 0.171875 -7.234375 L 1.265625 -7.546875 L 1.609375 -9.234375 L 1.96875 -9.234375 L 1.96875 -7.4375 L 4.140625 -7.4375 L 4.140625 -6.84375 L 1.96875 -6.84375 L 1.96875 -2.140625 C 1.96875 -1.566406 2.066406 -1.144531 2.265625 -0.875 C 2.460938 -0.601562 2.773438 -0.46875 3.203125 -0.46875 Z M 3.203125 -0.46875 "/></g></g></g><g fill="#0cb454" fill-opacity="1"><g transform="translate(232.002343, 294.985675)"><g><path d="M 5.75 0 L 5.578125 -1.171875 L 5.53125 -1.171875 C 5.15625 -0.691406 4.769531 -0.351562 4.375 -0.15625 C 3.976562 0.0390625 3.515625 0.140625 2.984375 0.140625 C 2.253906 0.140625 1.6875 -0.046875 1.28125 -0.421875 C 0.875 -0.796875 0.671875 -1.3125 0.671875 -1.96875 C 0.671875 -2.695312 0.972656 -3.257812 1.578125 -3.65625 C 2.179688 -4.0625 3.054688 -4.273438 4.203125 -4.296875 L 5.609375 -4.34375 L 5.609375 -4.828125 C 5.609375 -5.535156 5.460938 -6.066406 5.171875 -6.421875 C 4.890625 -6.785156 4.429688 -6.96875 3.796875 -6.96875 C 3.109375 -6.96875 2.394531 -6.78125 1.65625 -6.40625 L 1.40625 -6.984375 C 2.21875 -7.367188 3.023438 -7.5625 3.828125 -7.5625 C 4.640625 -7.5625 5.242188 -7.347656 5.640625 -6.921875 C 6.046875 -6.503906 6.25 -5.84375 6.25 -4.9375 L 6.25 0 Z M 3.015625 -0.484375 C 3.816406 -0.484375 4.441406 -0.707031 4.890625 -1.15625 C 5.347656 -1.613281 5.578125 -2.242188 5.578125 -3.046875 L 5.578125 -3.78125 L 4.28125 -3.71875 C 3.238281 -3.675781 2.492188 -3.515625 2.046875 -3.234375 C 1.609375 -2.960938 1.390625 -2.535156 1.390625 -1.953125 C 1.390625 -1.484375 1.53125 -1.117188 1.8125 -0.859375 C 2.101562 -0.609375 2.503906 -0.484375 3.015625 -0.484375 Z M 3.015625 -0.484375 "/></g></g></g><g fill="#0cb454" fill-opacity="1"><g transform="translate(239.415196, 294.985675)"><g><path d="M 1.828125 -7.4375 L 1.828125 -2.625 C 1.828125 -1.875 1.984375 -1.328125 2.296875 -0.984375 C 2.617188 -0.648438 3.109375 -0.484375 3.765625 -0.484375 C 4.648438 -0.484375 5.300781 -0.703125 5.71875 -1.140625 C 6.132812 -1.585938 6.34375 -2.316406 6.34375 -3.328125 L 6.34375 -7.4375 L 7.015625 -7.4375 L 7.015625 0 L 6.4375 0 L 6.3125 -1.03125 L 6.28125 -1.03125 C 5.789062 -0.25 4.929688 0.140625 3.703125 0.140625 C 2.003906 0.140625 1.15625 -0.765625 1.15625 -2.578125 L 1.15625 -7.4375 Z M 1.828125 -7.4375 "/></g></g></g><g fill="#0cb454" fill-opacity="1"><g transform="translate(247.668399, 294.985675)"><g><path d="M 4.171875 -7.578125 C 4.484375 -7.578125 4.820312 -7.546875 5.1875 -7.484375 L 5.046875 -6.828125 C 4.742188 -6.910156 4.425781 -6.953125 4.09375 -6.953125 C 3.457031 -6.953125 2.9375 -6.679688 2.53125 -6.140625 C 2.125 -5.597656 1.921875 -4.921875 1.921875 -4.109375 L 1.921875 0 L 1.25 0 L 1.25 -7.4375 L 1.8125 -7.4375 L 1.890625 -6.09375 L 1.9375 -6.09375 C 2.238281 -6.632812 2.5625 -7.015625 2.90625 -7.234375 C 3.257812 -7.460938 3.679688 -7.578125 4.171875 -7.578125 Z M 4.171875 -7.578125 "/></g></g></g><g fill="#0cb454" fill-opacity="1"><g transform="translate(253.113601, 294.985675)"><g><path d="M 5.75 0 L 5.578125 -1.171875 L 5.53125 -1.171875 C 5.15625 -0.691406 4.769531 -0.351562 4.375 -0.15625 C 3.976562 0.0390625 3.515625 0.140625 2.984375 0.140625 C 2.253906 0.140625 1.6875 -0.046875 1.28125 -0.421875 C 0.875 -0.796875 0.671875 -1.3125 0.671875 -1.96875 C 0.671875 -2.695312 0.972656 -3.257812 1.578125 -3.65625 C 2.179688 -4.0625 3.054688 -4.273438 4.203125 -4.296875 L 5.609375 -4.34375 L 5.609375 -4.828125 C 5.609375 -5.535156 5.460938 -6.066406 5.171875 -6.421875 C 4.890625 -6.785156 4.429688 -6.96875 3.796875 -6.96875 C 3.109375 -6.96875 2.394531 -6.78125 1.65625 -6.40625 L 1.40625 -6.984375 C 2.21875 -7.367188 3.023438 -7.5625 3.828125 -7.5625 C 4.640625 -7.5625 5.242188 -7.347656 5.640625 -6.921875 C 6.046875 -6.503906 6.25 -5.84375 6.25 -4.9375 L 6.25 0 Z M 3.015625 -0.484375 C 3.816406 -0.484375 4.441406 -0.707031 4.890625 -1.15625 C 5.347656 -1.613281 5.578125 -2.242188 5.578125 -3.046875 L 5.578125 -3.78125 L 4.28125 -3.71875 C 3.238281 -3.675781 2.492188 -3.515625 2.046875 -3.234375 C 1.609375 -2.960938 1.390625 -2.535156 1.390625 -1.953125 C 1.390625 -1.484375 1.53125 -1.117188 1.8125 -0.859375 C 2.101562 -0.609375 2.503906 -0.484375 3.015625 -0.484375 Z M 3.015625 -0.484375 "/></g></g></g><g fill="#0cb454" fill-opacity="1"><g transform="translate(260.526454, 294.985675)"><g><path d="M 6.421875 0 L 6.421875 -4.8125 C 6.421875 -5.5625 6.265625 -6.101562 5.953125 -6.4375 C 5.640625 -6.78125 5.148438 -6.953125 4.484375 -6.953125 C 3.597656 -6.953125 2.945312 -6.726562 2.53125 -6.28125 C 2.125 -5.832031 1.921875 -5.109375 1.921875 -4.109375 L 1.921875 0 L 1.25 0 L 1.25 -7.4375 L 1.8125 -7.4375 L 1.953125 -6.40625 L 1.984375 -6.40625 C 2.472656 -7.1875 3.332031 -7.578125 4.5625 -7.578125 C 6.25 -7.578125 7.09375 -6.671875 7.09375 -4.859375 L 7.09375 0 Z M 6.421875 0 "/></g></g></g><g fill="#0cb454" fill-opacity="1"><g transform="translate(268.779658, 294.985675)"><g><path d="M 3.203125 -0.46875 C 3.628906 -0.46875 4.003906 -0.503906 4.328125 -0.578125 L 4.328125 -0.03125 C 3.992188 0.0820312 3.613281 0.140625 3.1875 0.140625 C 2.53125 0.140625 2.046875 -0.0351562 1.734375 -0.390625 C 1.421875 -0.742188 1.265625 -1.296875 1.265625 -2.046875 L 1.265625 -6.84375 L 0.171875 -6.84375 L 0.171875 -7.234375 L 1.265625 -7.546875 L 1.609375 -9.234375 L 1.96875 -9.234375 L 1.96875 -7.4375 L 4.140625 -7.4375 L 4.140625 -6.84375 L 1.96875 -6.84375 L 1.96875 -2.140625 C 1.96875 -1.566406 2.066406 -1.144531 2.265625 -0.875 C 2.460938 -0.601562 2.773438 -0.46875 3.203125 -0.46875 Z M 3.203125 -0.46875 "/></g></g></g></svg>